<svg width="645" height="159" viewBox="0 0 645 159" fill="none" xmlns="http://www.w3.org/2000/svg">
<path d="M604.261 15.4066L575.24 72.1652L544.879 15.3783C542.956 11.6203 540.314 8.64746 536.907 6.63602C533.501 4.62533 529.542 3.69998 525.177 3.69998C523.007 3.69998 520.692 4.00591 518.253 4.575C515.944 5.01518 513.714 5.7586 512.1 7.14259L509.923 9.00824L511.323 11.5097L560.477 99.313V150.8V154.3H563.977C571.321 154.3 577.498 152.759 581.963 149.133C586.66 145.432 588.877 140.146 588.877 133.8V99.3162L638.228 11.5149L639.732 8.84065L637.277 6.99999C635.618 5.75539 633.454 5.02532 631.126 4.57949C628.776 3.99993 626.458 3.69998 624.177 3.69998C619.811 3.69998 615.844 4.62583 612.414 6.62675C608.975 8.63267 606.28 11.6002 604.286 15.3595L604.273 15.383L604.261 15.4066Z" stroke="url(#paint0_linear_0_1)" stroke-width="7"/>
<path d="M422.457 147.53L422.486 147.545L422.514 147.558C431.971 152.075 442.496 154.3 454.023 154.3C465.548 154.3 476.014 152.075 485.35 147.549L485.359 147.545L485.369 147.54C494.804 142.893 502.296 136.5 507.735 128.341C513.188 120.162 515.923 111.086 515.923 101.2V56.4C515.923 46.5138 513.187 37.4932 507.719 29.4347C502.276 21.4134 494.784 15.1618 485.36 10.6554C476.023 5.993 465.553 3.69998 454.023 3.69998C442.484 3.69998 431.949 5.99633 422.486 10.6554C413.186 15.1664 405.765 21.4208 400.326 29.4347L400.314 29.4526L400.302 29.4706C394.98 37.5264 392.323 46.5343 392.323 56.4V101.2C392.323 111.065 394.979 120.129 400.287 128.306L400.299 128.324L400.31 128.341C405.741 136.487 413.156 142.88 422.457 147.53ZM478.971 120.92L478.958 120.931L478.945 120.943C473.237 125.835 465.08 128.5 454.023 128.5C442.979 128.5 434.739 125.841 428.887 120.931C423.222 116.069 420.323 109.554 420.323 101V56.8C420.323 48.2464 423.222 41.731 428.887 36.8687C434.739 31.9593 442.979 29.3 454.023 29.3C465.08 29.3 473.237 31.9653 478.945 36.8574L478.958 36.8687L478.971 36.88C484.771 41.7518 487.723 48.2648 487.723 56.8V101C487.723 109.535 484.771 116.048 478.971 120.92Z" stroke="url(#paint1_linear_0_1)" stroke-width="7"/>
<path d="M274.096 31.3H319.196V150.8V154.3H322.696C330.04 154.3 336.217 152.759 340.683 149.133C345.379 145.431 347.596 140.146 347.596 133.8V31.3H375.096C381.48 31.3 386.885 29.5006 390.676 25.365C394.407 21.2953 395.996 15.648 395.996 9V5.5H392.496H291.496C285.084 5.5 279.652 7.24461 275.877 11.3226C272.15 15.3495 270.596 21.0582 270.596 27.8V31.3H274.096Z" stroke="url(#paint2_linear_0_1)" stroke-width="7"/>
<path d="M151.935 9.38404L151.935 9.38405C147.483 13.3416 145.36 18.6833 145.36 25V150.8V154.3H148.86C156.302 154.3 162.532 152.823 166.95 149.281C171.515 145.619 173.56 140.236 173.56 133.8V52.6166L238.93 152.714L239.966 154.3H241.86C247.574 154.3 252.57 152.5 256.605 148.799C260.788 145.087 262.96 140.349 262.96 134.8V24.2C262.96 17.8071 260.865 12.4755 256.24 8.86159C251.775 5.23945 245.6 3.69998 238.26 3.69998H234.76V7.19998V101.603L171.79 5.28475L170.754 3.69998H168.86C162.111 3.69998 156.336 5.47217 151.935 9.38404Z" stroke="url(#paint3_linear_0_1)" stroke-width="7"/>
<path d="M22.037 154.265L24.7039 154.646L25.7547 152.165L42.0504 113.7H93.2031L109.304 152.152L110.349 154.647L113.027 154.265C118.341 153.506 122.782 151.392 125.981 147.688C129.102 144.074 130.632 139.713 130.632 134.8C130.632 131.216 129.851 127.682 128.348 124.22L81.168 12.8659C80.0345 10.0473 78.3377 7.69424 75.9625 6.06419C73.5728 4.42425 70.7642 3.69998 67.732 3.69998C64.6497 3.69998 61.7966 4.41585 59.3533 6.02936C56.9105 7.64254 55.1301 9.98602 53.915 12.8213L53.9122 12.8279L53.9093 12.8346L6.71544 124.22C5.21258 127.682 4.43201 131.217 4.43201 134.8C4.43201 139.713 5.96247 144.074 9.08313 147.688C12.2819 151.392 16.7227 153.506 22.037 154.265ZM51.3092 88.3L67.6118 47.7032L83.7717 88.3H51.3092Z" stroke="url(#paint4_linear_0_1)" stroke-width="7"/>
<defs>
<linearGradient id="paint0_linear_0_1" x1="514.377" y1="79" x2="635.177" y2="79" gradientUnits="userSpaceOnUse">
<stop stop-color="#E17878"/>
<stop offset="1" stop-color="#C92E79"/>
</linearGradient>
<linearGradient id="paint1_linear_0_1" x1="395.823" y1="79" x2="512.423" y2="79" gradientUnits="userSpaceOnUse">
<stop stop-color="#E17878"/>
<stop offset="1" stop-color="#C92E79"/>
</linearGradient>
<linearGradient id="paint2_linear_0_1" x1="274.096" y1="79.9" x2="392.496" y2="79.9" gradientUnits="userSpaceOnUse">
<stop stop-color="#E17878"/>
<stop offset="1" stop-color="#C92E79"/>
</linearGradient>
<linearGradient id="paint3_linear_0_1" x1="148.86" y1="79" x2="259.46" y2="79" gradientUnits="userSpaceOnUse">
<stop stop-color="#E17878"/>
<stop offset="1" stop-color="#C92E79"/>
</linearGradient>
<linearGradient id="paint4_linear_0_1" x1="7.93201" y1="79" x2="127.132" y2="79" gradientUnits="userSpaceOnUse">
<stop stop-color="#E17878"/>
<stop offset="1" stop-color="#C92E79"/>
</linearGradient>
</defs>
</svg>
